HIERARCHY
ROOT Hips
{
	OFFSET 55.310501 45.591206 43.872097
	CHANNELS 6 Xposition Yposition Zposition Zrotation Xrotation Yrotation
	JOINT Chest
	{
		OFFSET -0.153500 1.163101 7.852402
		CHANNELS 6 Xposition Yposition Zposition Zrotation Xrotation Yrotation
		JOINT Chest2
		{
			OFFSET 0.000000 0.000000 3.343300
			CHANNELS 6 Xposition Yposition Zposition Zrotation Xrotation Yrotation
			JOINT Neck
			{
				OFFSET 0.000000 0.000000 7.785500
				CHANNELS 6 Xposition Yposition Zposition Zrotation Xrotation Yrotation
				JOINT Head
				{
					OFFSET 0.000000 0.000000 2.173901
					CHANNELS 6 Xposition Yposition Zposition Zrotation Xrotation Yrotation
					End Site
					{
						OFFSET 0.000000 0.000000 10.528198
					}
				}
			}
			JOINT LeftCollar
			{
				OFFSET 2.676300 -1.652401 4.938301
				CHANNELS 6 Xposition Yposition Zposition Zrotation Xrotation Yrotation
				JOINT LeftShoulder
				{
					OFFSET 4.299000 0.000000 0.000000
					CHANNELS 6 Xposition Yposition Zposition Zrotation Xrotation Yrotation
					JOINT LeftElbow
					{
						OFFSET 0.000000 0.000000 -10.245102
						CHANNELS 6 Xposition Yposition Zposition Zrotation Xrotation Yrotation
						JOINT LeftWrist
						{
							OFFSET 0.000000 0.000000 -12.703300
							CHANNELS 6 Xposition Yposition Zposition Zrotation Xrotation Yrotation
							End Site
							{
								OFFSET 0.000000 0.000000 -2.173901
							}
						}
					}
				}
			}
			JOINT RightCollar
			{
				OFFSET -2.534599 -1.686401 5.195000
				CHANNELS 6 Xposition Yposition Zposition Zrotation Xrotation Yrotation
				JOINT RightShoulder
				{
					OFFSET -4.144100 0.000000 0.000000
					CHANNELS 6 Xposition Yposition Zposition Zrotation Xrotation Yrotation
					JOINT RightElbow
					{
						OFFSET 0.000000 0.000000 -10.116501
						CHANNELS 6 Xposition Yposition Zposition Zrotation Xrotation Yrotation
						JOINT RightWrist
						{
							OFFSET 0.000000 0.000000 -12.937801
							CHANNELS 6 Xposition Yposition Zposition Zrotation Xrotation Yrotation
							End Site
							{
								OFFSET 0.000000 0.000000 -2.173901
							}
						}
					}
				}
			}
		}
	}
	JOINT LeftHip
	{
		OFFSET 2.175598 0.064499 -2.662899
		CHANNELS 6 Xposition Yposition Zposition Zrotation Xrotation Yrotation
		JOINT LeftKnee
		{
			OFFSET 0.000000 -0.000004 -18.585800
			CHANNELS 6 Xposition Yposition Zposition Zrotation Xrotation Yrotation
			JOINT LeftAnkle
			{
				OFFSET 0.000000 0.000000 -18.979500
				CHANNELS 6 Xposition Yposition Zposition Zrotation Xrotation Yrotation
				End Site
				{
					OFFSET 0.000000 -9.264000 0.000000
				}
			}
		}
	}
	JOINT RightHip
	{
		OFFSET -2.092400 -0.058102 -2.581200
		CHANNELS 6 Xposition Yposition Zposition Zrotation Xrotation Yrotation
		JOINT RightKnee
		{
			OFFSET 0.000000 -0.000004 -18.665001
			CHANNELS 6 Xposition Yposition Zposition Zrotation Xrotation Yrotation
			JOINT RightAnkle
			{
				OFFSET 0.000000 0.000000 -18.566601
				CHANNELS 6 Xposition Yposition Zposition Zrotation Xrotation Yrotation
				End Site
				{
					OFFSET 0.000000 -8.497601 0.000000
				}
			}
		}
	}
}
MOTION
Frames: 4
Frame Time: 0.041667
62.062801 58.553806 44.633995 892.835771 -3.157997 -0.891522 -0.153495 1.163114 7.852412 6.217891 5.965744 6.420328 0.000003 0.000005 3.343309 -4.125838 -3.712420 -0.739609 -0.000014 0.000004 7.785507 -48.460981 -13.874956 4.576425 -0.000000 0.000013 2.173903 -7.276337 -7.219648 -7.130319 2.676288 -1.652395 4.938303 -3.754155 4.298353 -3.290850 4.299015 0.000002 0.000008 -17.958540 24.586519 -40.337537 -0.000002 0.000003 -10.245103 -7.797091 719.895819 0.053356 0.000005 0.000009 -12.703299 1315.475091 -186.444439 536.050458 -2.534607 -1.686396 5.195007 -1.704768 -1.333457 1.449899 -4.144101 0.000004 0.000002 46.079420 -41.817953 137.860880 0.000003 0.000006 -10.116497 -83.752094 -9.460364 -13.408625 0.000002 0.000003 -12.937796 0.040482 -374.807532 1.780666 2.175602 0.064500 -2.662890 -352.840196 -3.762548 -6.462527 0.000001 -0.000005 -18.585806 197.689771 -197.306748 -168.265385 -0.000024 -0.000006 -18.979517 369.446845 8.313712 -127.971189 -2.092394 -0.058098 -2.581195 384.246034 21.359079 1.216300 0.000011 -0.000001 -18.665003 -1123.396839 15.800625 -9.712173 -0.000005 -0.000007 -18.566607 722.923341 28.337089 9.328287
61.943100 58.799805 44.651997 893.013793 -3.203464 -0.889204 -0.153505 1.163113 7.852409 6.059892 5.830426 6.386386 -0.000001 0.000003 3.343299 -3.878106 -3.621044 -0.711816 0.000002 -0.000002 7.785499 -48.361493 -13.811593 4.695319 0.000002 0.000013 2.173905 -7.341532 -7.230605 -7.163566 2.676294 -1.652402 4.938297 -3.980295 4.368105 -3.268080 4.299002 0.000006 -0.000004 -17.818982 24.274115 -40.270276 -0.000000 0.000008 -10.245101 -8.145722 719.937619 0.072487 -0.000009 0.000000 -12.703293 1315.575194 -186.448960 536.027727 -2.534599 -1.686408 5.194999 -1.390824 -1.108819 0.851480 -4.144104 0.000010 -0.000004 46.009647 -41.668915 138.305498 0.000015 0.000003 -10.116499 -83.901142 -9.502945 -13.553212 -0.000003 -0.000003 -12.937805 -0.073693 -374.806221 1.639173 2.175592 0.064504 -2.662903 -353.073160 -3.497944 -6.333365 0.000001 -0.000002 -18.585804 197.544849 -197.457518 -168.182371 0.000005 0.000002 -18.979511 369.504409 8.417110 -128.248481 -2.092403 -0.058097 -2.581201 384.651802 21.711730 1.209290 -0.000004 0.000003 -18.665005 -1123.427985 15.867682 -9.843981 -0.000003 -0.000011 -18.566603 722.801381 29.018120 8.828276
61.824299 59.043411 44.670692 893.142037 -3.240377 -0.875453 -0.153491 1.163099 7.852403 5.951076 5.707813 6.339098 0.000004 0.000004 3.343301 -3.631854 -3.516956 -0.680127 0.000002 0.000008 7.785505 -48.319832 -13.781951 4.725745 -0.000006 -0.000008 2.173903 -7.337970 -7.236975 -7.153816 2.676296 -1.652398 4.938296 -4.135091 4.394616 -3.331145 4.299000 0.000011 -0.000004 -17.837089 23.985256 -40.085376 -0.000003 0.000005 -10.245108 -8.279212 719.941335 0.092311 -0.000001 -0.000009 -12.703299 1315.560223 -186.457198 535.973687 -2.534604 -1.686395 5.195005 -1.330288 -0.958244 0.945581 -4.144108 0.000004 -0.000002 45.663397 -41.996135 138.025009 0.000005 -0.000000 -10.116495 -84.038518 -9.502795 -13.731183 0.000011 0.000005 -12.937794 -0.193017 -374.902062 1.530152 2.175599 0.064493 -2.662899 -353.262657 -3.235964 -6.207599 -0.000003 -0.000003 -18.585804 197.249047 -197.612344 -168.080109 0.000003 -0.000005 -18.979511 369.735516 8.502788 -128.484833 -2.092392 -0.058102 -2.581198 385.121910 22.052058 1.160110 -0.000002 -0.000000 -18.665005 -1123.581965 15.892038 -9.967948 0.000001 -0.000009 -18.566605 722.644833 29.727695 8.474512
61.705700 59.285007 44.690392 893.245091 -3.276431 -0.856403 -0.153493 1.163107 7.852402 5.869414 5.592068 6.269312 -0.000000 -0.000005 3.343297 -3.396732 -3.402332 -0.644801 -0.000001 -0.000004 7.785502 -48.225196 -13.763422 4.734505 -0.000001 -0.000008 2.173913 -7.336339 -7.247979 -7.162100 2.676300 -1.652401 4.938294 -4.372454 4.428727 -3.328691 4.298997 0.000010 -0.000010 -17.898159 23.814491 -39.875799 -0.000003 -0.000001 -10.245111 -8.199390 719.938384 0.110745 -0.000010 -0.000010 -12.703302 1315.424712 -186.425765 535.910740 -2.534595 -1.686406 5.195001 -1.252815 -0.821934 1.029274 -4.144102 -0.000004 -0.000013 45.304877 -42.353808 137.778699 -0.000000 0.000001 -10.116488 -84.208986 -9.428161 -13.970127 0.000003 0.000003 -12.937809 -0.130083 -375.061889 1.436926 2.175601 0.064500 -2.662890 -353.443657 -2.971543 -6.080389 -0.000008 -0.000006 -18.585798 196.790399 -197.778619 -167.968367 -0.000010 0.000002 -18.979515 370.126940 8.542445 -128.624756 -2.092388 -0.058095 -2.581195 385.532159 22.354992 1.122676 -0.000001 -0.000005 -18.665001 -1123.769166 15.947310 -10.039337 0.000006 -0.000010 -18.566607 722.545167 30.399656 8.121536
